<svg width="1000" height="1000" viewBox="0 0 1000 1000" fill="none" xmlns="http://www.w3.org/2000/svg">
<g clip-path="url(#clip0_795_4874)">
<path fill-rule="evenodd" clip-rule="evenodd" d="M833.773 150.029C837.907 146.04 840.215 143.131 840.494 141.562C840.379 151.242 839.918 185.37 839.051 192C832.244 244.098 814.195 270.594 779.023 280.121C768.473 282.979 743.885 283.182 729.523 280.529C701.284 275.314 667.095 264.783 640.023 252.961C637.273 251.76 629.848 248.518 623.523 245.757C617.198 242.996 595.888 233.112 576.166 223.792C528.048 201.052 515.746 197.106 492.746 197.035C483.992 197.008 478.065 197.691 466.246 200.09C445.86 204.227 439.282 203.795 416.273 196.806C410.91 195.177 406.56 193.542 406.605 193.172C406.75 191.971 423.665 177.643 431.445 172.131C435.613 169.178 443.523 164.572 449.023 161.895C460.092 156.509 459.35 155.828 446.538 159.614C428.531 164.935 416.239 171.721 404.184 182.999L397.467 189.282L390.808 187.479C372.991 182.656 352.898 188.52 343.783 201.203C342.002 203.682 339.779 208.627 338.844 212.193C337.255 218.25 337.252 219.227 338.79 227.088C339.9 232.754 342.057 238.764 345.4 245.5C350.247 255.266 361.734 272 363.591 272C364.104 272 364.527 269.863 364.533 267.25C364.557 255.444 374.159 244.666 388.023 240.882C390.043 240.331 388.216 240.155 382.431 240.344C375.237 240.579 373.099 241.058 369.294 243.288C366.794 244.753 363.813 247.538 362.67 249.476C361.526 251.414 360.238 252.996 359.807 252.991C358.439 252.976 351.191 240.922 349.354 235.609C346.919 228.562 346.967 218.011 349.457 213.129C351.695 208.743 356.854 204.5 362.277 202.587C373.297 198.699 386.369 199.893 406.523 206.629C428.269 213.897 443.939 217.876 455.645 219.101C468.539 220.451 474.592 219.581 485.743 214.772C495.917 210.385 504.374 210.413 517.523 214.876C528.606 218.637 544.142 226.925 548.195 231.237L551.023 234.245L547.523 233.631C531.859 230.884 526.182 231.958 519.41 238.947L514.798 243.708L514.15 234.604C513.793 229.597 513.164 224.254 512.752 222.73C512.015 220.009 511.922 220.08 507.513 226.702C503.784 232.302 502.046 233.919 497.258 236.251C491.06 239.27 481.867 240.862 469.523 241.056L462.023 241.174L470.151 245.073C492.041 255.574 521.506 258.504 553.603 253.371C557.353 252.772 557.499 252.878 569.705 265.133C592.959 288.48 609.428 313.86 622.985 347.245C633.156 372.292 638.496 394.696 640.742 421.75C641.393 429.587 642.241 436 642.626 436C643.818 436 645.029 413.428 644.905 393.5C644.786 374.284 643.028 354.587 639.639 334.5C638.618 328.45 637.873 323.389 637.983 323.253C638.093 323.118 640.417 323.67 643.147 324.481C652.849 327.362 674.466 331.923 686.157 333.556C707.624 336.553 739.646 334.714 757.103 329.479C758.989 328.914 759.333 329.54 760.798 336.205C765.599 358.058 766.929 371.721 766.958 399.5C766.987 427.636 766.236 435.691 761.366 459.5C758.292 474.531 751.286 498.108 746.154 510.698C741.103 523.087 729.724 546.249 724.135 555.518C722.151 558.808 720.527 561.962 720.526 562.527C720.524 563.092 724.461 567.1 729.273 571.432C755.726 595.247 770.552 609.483 770.107 610.643C769.835 611.351 755.08 628.221 737.318 648.132C724.338 662.682 709.479 677.866 701.705 685.811C698.841 688.738 696.938 690.682 696.445 691.25C696.402 690.837 691.114 685.917 684.695 680.315C678.275 674.713 666.094 664.026 657.626 656.565C649.158 649.104 641.836 643 641.356 643C640.876 643 638.59 644.195 636.276 645.656C628.977 650.264 602.947 662.624 592.786 666.307C570.059 674.546 549.161 679.429 525.023 682.141C509.961 683.833 473.003 683.836 456.523 682.146C429.534 679.377 396.247 670.813 374.31 660.992C327.462 640.02 284.733 602.33 256.586 557.149C237.326 526.236 223.963 488.31 218.303 448.5C216.334 434.653 216.666 386.474 218.829 372.144C228.531 307.867 254.268 256.474 298.463 213.123C331.12 181.09 370.757 159.033 417.237 147.031C425.252 144.961 442.07 142.174 453.796 140.973C467.655 139.554 520.376 140.161 533.523 141.891C541.768 142.976 570.243 145.889 593.35 148.012C606.034 149.177 621.872 151.549 670.023 159.498C734.384 170.123 764.944 172.825 788.549 169.978C806.765 167.781 822.624 160.785 833.773 150.029ZM423.013 259.85C391.392 277.09 368.734 300.587 352.196 333.291C338.175 361.017 331.65 394.21 334.325 424.201C335.74 440.055 337.491 448.767 342.228 463.5C367.61 542.455 441.653 586.915 523.023 572.061C537.635 569.394 553.604 564.702 553.472 563.114C553.444 562.776 549.079 558.9 543.773 554.5C530.594 543.572 499.888 517.307 489.498 508.075C484.809 503.909 478.785 498.624 476.111 496.331L471.25 492.163L473.136 489.812C482.081 478.668 543.533 407.647 544.624 407.194C545.03 407.025 556.992 417.375 571.208 430.194C597.859 454.224 620.056 474.018 626.978 479.924L630.933 483.299L631.654 480.604C632.682 476.758 632.097 474.491 626.125 459.173C617.306 436.556 608.597 420.11 593.203 397C563.468 352.363 524.712 315.232 470.552 279.489C457.059 270.584 432.146 255.975 430.523 256.016C430.248 256.023 426.868 257.748 423.013 259.85Z" fill="white"/>
</g>
<path d="M701.054 756C705.255 756 709.021 756.968 712.353 758.905C715.685 760.769 718.292 763.387 720.175 766.758C722.058 770.057 723 773.786 723 777.946C723 782.106 722.058 785.871 720.175 789.242C718.292 792.613 715.685 795.267 712.353 797.203C709.021 799.068 705.255 800 701.054 800C696.781 800 692.979 799.068 689.647 797.203C686.315 795.267 683.708 792.613 681.825 789.242C679.942 785.871 679 782.106 679 777.946C679 773.786 679.942 770.057 681.825 766.758C683.708 763.387 686.315 760.769 689.647 758.905C692.979 756.968 696.781 756 701.054 756ZM701.054 795.697C706.269 795.697 710.47 794.047 713.657 790.748C716.916 787.449 718.546 783.182 718.546 777.946C718.546 772.711 716.916 768.443 713.657 765.144C710.47 761.845 706.269 760.196 701.054 760.196C695.767 760.196 691.53 761.845 688.343 765.144C685.229 768.443 683.672 772.711 683.672 777.946C683.672 783.182 685.229 787.449 688.343 790.748C691.53 794.047 695.767 795.697 701.054 795.697ZM710.832 773.428C710.832 775.149 710.361 776.619 709.42 777.839C708.551 778.986 707.319 779.811 705.726 780.313L711.81 789.242L704.965 789.35L699.751 780.743H697.904V789.35H692.254V766.22H702.684C705.147 766.22 707.102 766.866 708.551 768.156C710.072 769.447 710.832 771.205 710.832 773.428ZM697.904 776.117H702.358C703.155 776.117 703.807 775.902 704.314 775.472C704.893 775.042 705.183 774.432 705.183 773.643C705.183 772.854 704.893 772.28 704.314 771.922C703.807 771.491 703.155 771.276 702.358 771.276H697.904V776.117Z" fill="white"/>
<path d="M654.973 874.46C656.653 877.26 657.259 879.78 656.793 882.02C656.326 884.353 655.159 886.313 653.293 887.9C651.519 889.487 649.373 890.513 646.853 890.98C644.426 891.447 641.999 891.213 639.573 890.28C637.146 889.347 635.139 887.573 633.553 884.96L623.193 868.3C622.166 866.62 620.813 865.407 619.133 864.66C617.453 863.913 615.259 863.54 612.553 863.54L631.733 856.4C635.933 856.4 639.479 857.193 642.373 858.78C645.266 860.273 647.739 862.747 649.793 866.2L654.973 874.46ZM612.693 863.54C602.706 863.54 593.933 861.44 586.373 857.24C578.813 852.947 572.933 846.973 568.733 839.32C564.626 831.667 562.573 822.753 562.573 812.58C562.573 804.927 563.739 797.973 566.073 791.72C568.499 785.467 571.906 780.1 576.293 775.62C580.773 771.14 586.093 767.733 592.253 765.4C598.413 762.973 605.226 761.76 612.693 761.76C622.679 761.76 631.406 763.86 638.873 768.06C646.433 772.26 652.313 778.187 656.513 785.84C660.713 793.4 662.813 802.313 662.813 812.58C662.813 820.233 661.599 827.187 659.173 833.44C656.839 839.693 653.433 845.107 648.953 849.68C644.566 854.16 639.293 857.613 633.133 860.04C626.973 862.373 620.159 863.54 612.693 863.54ZM612.693 841.98C617.639 841.98 621.839 840.813 625.293 838.48C628.746 836.147 631.406 832.787 633.273 828.4C635.139 824.013 636.073 818.74 636.073 812.58C636.073 803.34 634.019 796.153 629.913 791.02C625.806 785.887 620.066 783.32 612.693 783.32C607.839 783.32 603.639 784.487 600.093 786.82C596.639 789.06 593.979 792.373 592.113 796.76C590.246 801.053 589.313 806.327 589.313 812.58C589.313 821.82 591.366 829.053 595.473 834.28C599.579 839.413 605.319 841.98 612.693 841.98Z" fill="white"/>
<path d="M523.277 863.54C514.877 863.54 507.597 862.093 501.437 859.2C495.37 856.213 490.703 852.013 487.437 846.6C484.17 841.187 482.537 834.793 482.537 827.42C482.537 820.327 484.077 814.12 487.157 808.8C490.33 803.387 494.623 799.187 500.037 796.2C505.543 793.12 511.797 791.58 518.797 791.58C523.93 791.58 528.597 792.42 532.797 794.1C536.997 795.687 540.59 798.067 543.577 801.24C546.563 804.32 548.803 808.053 550.297 812.44C551.883 816.827 552.677 821.727 552.677 827.14C552.677 829.007 552.163 830.407 551.137 831.34C550.11 832.18 548.477 832.6 546.237 832.6H503.397V820.84H534.477L532.237 822.66C532.237 819.207 531.77 816.407 530.837 814.26C529.903 812.113 528.503 810.48 526.637 809.36C524.863 808.24 522.623 807.68 519.917 807.68C517.023 807.68 514.503 808.38 512.357 809.78C510.303 811.087 508.717 813.047 507.597 815.66C506.477 818.273 505.917 821.54 505.917 825.46V826.72C505.917 833.347 507.363 838.107 510.257 841C513.243 843.8 517.817 845.2 523.977 845.2C526.03 845.2 528.363 844.967 530.977 844.5C533.683 843.94 536.25 843.193 538.677 842.26C541.103 841.327 543.203 841.187 544.977 841.84C546.75 842.4 548.103 843.427 549.037 844.92C550.063 846.32 550.623 847.953 550.717 849.82C550.81 851.593 550.39 853.367 549.457 855.14C548.523 856.82 546.983 858.127 544.837 859.06C541.57 860.553 538.07 861.673 534.337 862.42C530.697 863.167 527.01 863.54 523.277 863.54Z" fill="white"/>
<path d="M377.32 863.26C373.867 863.26 371.067 862.467 368.92 860.88C366.773 859.2 365.093 856.633 363.88 853.18L336.58 777.16C335.087 772.96 335.32 769.413 337.28 766.52C339.333 763.533 342.927 762.04 348.06 762.04C351.513 762.04 354.22 762.88 356.18 764.56C358.14 766.147 359.68 768.667 360.8 772.12L381.66 834.7H375.08L397.48 772.12C398.787 768.667 400.42 766.147 402.38 764.56C404.34 762.88 406.86 762.04 409.94 762.04C413.02 762.04 415.493 762.88 417.36 764.56C419.227 766.147 420.767 768.713 421.98 772.26L442.98 834.7H437.38L458.8 772.12C459.92 768.667 461.413 766.147 463.28 764.56C465.24 762.88 467.947 762.04 471.4 762.04C475.693 762.04 478.82 763.533 480.78 766.52C482.833 769.413 483.067 772.96 481.48 777.16L453.9 853.32C452.687 856.68 451.007 859.2 448.86 860.88C446.807 862.467 444.053 863.26 440.6 863.26C437.053 863.26 434.207 862.467 432.06 860.88C430.007 859.2 428.373 856.633 427.16 853.18L407.42 797.74H410.92L390.76 853.32C389.453 856.68 387.773 859.2 385.72 860.88C383.667 862.467 380.867 863.26 377.32 863.26Z" fill="white"/>
<defs>
<clipPath id="clip0_795_4874">
<rect width="623.523" height="552.25" fill="white" transform="translate(217 139)"/>
</clipPath>
</defs>
</svg>
